# xmcd CD database file
#
# Track frame offsets:
#	150
#	11458
#	27494
#	44438
#	59086
#	75026
#	94699
#	107665
#	123035
#	136413
#	154445
#	172205
#	191747
#	206213
#	221898
#	243973
#	264110
#	277671
#	298583
#	319992
#
# Disc length: 4504 seconds
#
# Revision: 0
# Processed by: cddbd v1.5.1PL2 Copyright (c) Steve Scherf et al.
# Submitted via: Feurio! 1.68 - http://www.feurio.com
#
DISCID=23119614
DTITLE=D. Parton, L. Ronstadt, E. Harris - Trio
DYEAR=1900
DGENRE=
TTITLE0=Dolly Parton, Linda Ronstadt, Emmylou Harris - The Pain Of Loving You
TTITLE1=Dolly Parton, Linda Ronstadt, Emmylou Harris - Making Plans
TTITLE2=Dolly Parton, Linda Ronstadt, Emmylou Harris - To Know Him Is To Love 
TTITLE2=Him
TTITLE3=Dolly Parton, Linda Ronstadt, Emmylou Harris - Hobo's Meditation
TTITLE4=Dolly Parton, Linda Ronstadt, Emmylou Harris - Wildflowers
TTITLE5=Dolly Parton, Linda Ronstadt, Emmylou Harris - Telling Me Lies
TTITLE6=Dolly Parton, Linda Ronstadt, Emmylou Harris - My Dear Companion
TTITLE7=Dolly Parton, Linda Ronstadt, Emmylou Harris - Those Memories Of You
TTITLE8=Dolly Parton, Linda Ronstadt, Emmylou Harris - I've Had Enough
TTITLE9=Dolly Parton, Linda Ronstadt, Emmylou Harris - Farther Along
TTITLE10=Dolly Parton, Linda Ronstadt, Emmylou Harris - Lover's Return
TTITLE11=Dolly Parton, Linda Ronstadt, Emmylou Harris - High Sierra
TTITLE12=Dolly Parton, Linda Ronstadt, Emmylou Harris - Do I Ever Cross Your 
TTITLE12=Mind
TTITLE13=Dolly Parton, Linda Ronstadt, Emmylou Harris - After The Goldrush
TTITLE14=Dolly Parton, Linda Ronstadt, Emmylou Harris - The Blue Train
TTITLE15=Dolly Parton, Linda Ronstadt, Emmylou Harris - I Feel The Blues 
TTITLE15=Movin' In
TTITLE16=Dolly Parton, Linda Ronstadt, Emmylou Harris - You'll Never Be The Sun
TTITLE17=Dolly Parton, Linda Ronstadt, Emmylou Harris - He Rode All The Way To 
TTITLE17=Texas
TTITLE18=Dolly Parton, Linda Ronstadt, Emmylou Harris - Feel's Like Home
TTITLE19=Dolly Parton, Linda Ronstadt, Emmylou Harris - When We're Gone, Long 
TTITLE19=Gone
EXTD=
EXTT0=
EXTT1=
EXTT2=
EXTT3=
EXTT4=
EXTT5=
EXTT6=
EXTT7=
EXTT8=
EXTT9=
EXTT10=
EXTT11=
EXTT12=
EXTT13=
EXTT14=
EXTT15=
EXTT16=
EXTT17=
EXTT18=
EXTT19=
PLAYORDER=
